<svg xmlns="http://www.w3.org/2000/svg" viewBox="0 0 1835 819" aria-hidden="true" focusable="false">
  <g fill="currentColor">
    <path d="M1589.08,211.63c-74.78-51.18-143.47-55.87-231.07-55.66l-72.06.18-100.32,2.48-42.71,1.19h-27.6c10.94-13.69,21.35-25.41,33.6-37,40.54-38.32,87.54-67.15,140.07-86.14,41.22-14.9,83.96-23.2,127.92-23.75,24.99-.31,48.6.75,73.05,4.77,3.25.54,5.57,2.53,7.13,5.6l50.85,99.95,34.59,69.35c2.97,5.95,5.4,11.49,6.54,19.03Z"/>
    <path d="M1791.72,323.7l-52.23,75.71c-16.83,21.79-31.81,43.98-53.85,64.58,12.87-88.13-9.25-146.41-49-221.04l-88.16-165.51c-9.21-17.3-16.87-34.19-24.7-52.65,30.3,7.32,57.74,18.48,84.9,32.36,40.4,20.65,76.58,47.48,107.47,80.72,43.58,46.88,72.5,97.24,93.36,157.99l-17.8,27.84Z"/>
    <path d="M1066.15,531.18l-14.62,30.13c-18.96-45.51-26.29-92.92-26.72-141.3-.75-83.74,21.45-170.53,72.33-237.95,4.58-1.23,9-2.19,13.83-2.55,43.19-3.16,121-3.85,163.98-.96,4.73.32,9.06,1.02,13.8,2.36-18.94,13.46-35.99,26.61-51.61,43.25-42.19,44.93-62.71,90.05-89.75,144.23l-81.24,162.8Z"/>
    <path d="M1609.02,257.22c3.12,0,5.08,1.91,5.99,5.32l-.04,235.8c-3.87,38.81-27.3,68.51-65.21,77.48-32.95,7.8-74.2,2.54-97.44-24.3-14.04-16.21-21.69-36.68-21.71-58.68l-.11-229.68c0-3.55,2.54-5.87,5.46-5.87h48.98c3.52-.01,6.2,1.53,6.2,5.88l.16,232.52c0,12.77,9.55,22.09,20.77,24.96,7.14,1.83,14.32,1.88,21.26.6,13.72-2.54,22.66-13.37,22.66-27.41v-231.69c-.02-4.03,4.01-4.97,6.92-4.97l46.09.04Z"/>

    <path d="M1687.39,689.43c8.28.47,14.54.96,23.31,2.57-92.33,91.27-213.76,137.61-343.92,117.42-3.16-3.85-5.49-7.17-7.92-11.62l-84.17-154.28c-4.29-7.87-8.21-15.22-9.99-24.4,66.56,42.36,117.85,54.9,194.63,58.25l38.7,1.69,59.06,2.94,130.29,7.43Z"/>
    <path d="M1335.05,804.51c-68.77-17.76-130.32-51.98-181.97-99.44-37.85-34.78-68.15-76.58-88.5-123.64,6.1-14.69,12.34-27.61,19.18-41.55,20.39-41.56,41.62-81.91,65.11-121.78,3.45-5.85,6.18-11.24,11.61-16.15.56,25.96,2.77,48.74,9.03,72.76,10.7,41.11,27.55,80,49.4,116.6,36.8,61.64,71.68,123.6,104.62,187.18,4.48,8.65,8.09,16.53,11.52,26.02Z"/>
    <path d="M1543.75,659.69c-6.45-.47-11.33-1.61-18.25-2.97,3.97-2.72,6.95-4.4,11.25-6.4,40.41-18.81,75.87-45.77,104.34-80.18,13.29-16.06,24.89-32.06,37.11-49.01l77.43-107.38,61.12-84.61c5.77,24.91,8.56,47.69,9.19,71.93,2.03,62.15-10.13,122.84-36.67,179.05-15.22,33.39-35.24,63.44-58.86,91.64-8.95.73-16.68.45-25.67-.21l-161.01-11.85Z"/>
    <path d="M1344.91,573l-46.82.02c-4.51,0-6.17-2.64-6.17-7.2v-252.91s-54.53-.23-54.53-.23c-2.35,0-4.43-2.31-4.89-4.56l.12-45.08c.01-4.72,3.37-5.81,7.53-5.81l156.74.04c4.1,0,7.22,1.21,7.22,5.83l.04,43.91c-.08,3-2.4,5.71-5.5,5.72l-49.06.08v255.04c.01,2.74-2.44,5.15-4.67,5.15Z"/>

    <path d="M988.7,542.38l-.4,25.69c-.03,2.14-4.32,4.89-6.36,4.89l-43.06.07c-4.3,0-10.23-1.71-12.07-6.18l-13.47-32.59-10.58-25.1-7.44-17.67-15.15-35.74-3.46-8.16-3.34-8-9.3-21.34-10.46-23.89-6.31-14.58.43,9.54c.13,2.95-.53,6.37-.53,9.82v163.66c0,2.72.25,5.4-.92,7.01-1.01,1.39-4.86,3.1-6.76,3.1l-38.14.02c-2.13,0-5.33-1.29-6.67-2.46-1.71-1.48-2.56-5.48-2.54-7.72l.24-20.15-.06-205.11v-9.82s-.15-43.14-.15-43.14c-.02-5.28-1.23-23.79,2.36-26.76,1.12-.93,4.29-1.52,6.02-1.53l44.55-.21c11.72-.06,13.21,9.25,15.73,15.22l28.82,68.21,5.7,13.56,17.84,43.1,10.8,25.05,8.47,19.67-.67-8.05.05-172.54c.6-2.72,7.11-4.17,9.67-4.17h39.2c2.56.01,6.56,1.97,7.68,3.9l.42,47.4c.11,12.57-.83,19.11.02,33.15.1,1.72.09,3.13,0,4.88-.53,11.47.24,19.51-.06,27.91-.44,12.22.17,24.2-.03,36.49l-.09,5.48-.04,123.28.09,3.81Z"/>
    <path d="M735.72,428.44c.02,5.69-2.82,7.74-7.74,7.75l-48.65.08-20.82.07.05,82.37,35.83-.72,57.6-.23c3.56-.01,6.23,6.07,6.22,9.09l-.16,37.09c-.02,4.68-4.65,9-9.56,8.99l-140.32-.06c-4.78,0-8.52-6.59-8.52-11.19l-.03-297.49c0-2.56,2.33-6.78,4.34-6.9,3.94-.22,8.33-.47,11.79-.47l14.09.03,12.34-.28c14.67-.33,28.75.72,43.59.19,13.54-.48,27.05,1.16,40.73-.14,3.39-.32,6.11-.18,9.7.09,5.1.38,11.39.36,16.73.44,1.73.02,5.21,2.97,5.21,4.94l.12,42.7c-.87,2.66-1.88,4.82-3.6,7.03l-96.15.02.05,71.78h72.51c4.14,1.15,6.57,5.62,4.52,9.49l.12,35.32Z"/>
    <path d="M571.83,524.23l-.17,43.64c0,2.43-5.38,5.11-7.89,5.12l-125.73.02c-3.33,0-8.69-1.73-8.69-6.14l-.02-305.59c1.03-1.81,3.81-4.16,5.41-4.21l10.06-.31,13.83-.02,22.55.28c3.29.04,8.09,1.34,8.09,6.31l.03,255.19,76.73.17c2.21,0,4.8,3.69,5.8,5.53Z"/>

    <path fill-rule="evenodd" d="M154.64,510.31c-1.63-7.13-13.1-3.68-23.36-3.76l-17.61-.15-12.14-.1c-7.45-.06-16.13-1.47-23.07.38l-2.42,10.68-6.76,29.66-4.18,19.02c-1.1,5.02-7.39,7.08-12.05,7-14.45-.24-28.79.41-42.69-.54-6.54-.45-4.86-8.33-3.92-12.11l17.6-71.22,2.39-9.54,14.4-59.48,4.08-16.22,2.78-11.79,4.32-18.24,3.69-13.63,5.45-23.68,7.99-31.8,2.17-9.11,7.46-31.85c1.57-6.7,5.11-7.32,11.96-7.21l9.64.15,15.67-.07,30.87.62c4.71.09,7.11,6.27,7.99,9.94l3.33,13.83,7.43,31.04,3.87,16.13,6.28,26.14,7.87,32.62,3.94,16.42,5.84,24.51,9.89,39.81c.82,3.3,1.18,6.83,2.19,10.04,1.71,5.47,2.66,10.73,3.94,16.08l8.69,36.25,7.43,30.41c.43,1.75.7,5.17.98,7.27.25,1.88-3.59,5.16-5.55,5.16l-44.05.07c-5.27,0-8.91-3.32-9.98-8.22l-3.25-14.88-9.09-39.63ZM142.21,454.38l-7.46-34.29-6.19-27.44-2.09-9.2-3.13-13.18-2.99-13.02-4.85-23.53-1.89,10.02-3.61,16.49-4.94,19.94-4.74,21.82-7.05,33.16-2.12,9.04c-.82,3.51-1.46,6.54-1.5,10.18h52.57Z"/>

    <path d="M392.66,518.74c3.47.08,6.65,2.86,6.65,6.27l-.07,40.9c0,4.54-4.17,7.09-8.3,7.09h-131.7c-4.16-.01-8.8-1.79-8.8-7.29l-.02-301.51c0-2.48,1.53-5.71,2.63-6.85,3.29-.32,7.09-1.05,9.98-1.07l40.01-.21c1.75,0,5.08,1.33,6.13,2.5,1.26,1.41,1.23,4.9,1.23,7.39l-.03,252.57,38.53-.14,7.44-.21,16.96.11,19.35.43Z"/>
  </g>
</svg>