<svg xmlns="http://www.w3.org/2000/svg" viewBox="0 0 1835 819" aria-hidden="true" focusable="false">
  <g fill="currentColor">

    <!-- Logo mark: top-left shape (wing/arc top) -->
    <path d="M1589,212
      c-75-51-144-56-231-56
      l-72,0 -100,2.5 -43,1.2 -27.5,0
      c11-13.7,21.5-25.5,33.5-37
      c40.5-38.5,87.5-67,140-86
      c41-15,84-23.2,128-23.75
      c25-0.3,48.5,0.75,73,4.75
      c3.25,0.55,5.6,2.5,7.1,5.6
      l50.9,100 34.5,69.3
      c3,6,5.4,11.5,6.5,19Z"/>

    <!-- Logo mark: top-right arc -->
    <path d="M1791.7,323.7
      l-52.2,75.7
      c-16.8,21.8-31.8,44-53.9,64.6
      c12.9-88-9.25-146.5-49-221
      l-88.2-165.5
      c-9.2-17.3-16.9-34.2-24.7-52.7
      c30.3,7.3,57.7,18.5,84.9,32.4
      c40.4,20.6,76.6,47.5,107.5,80.7
      c43.6,46.9,72.5,97.2,93.4,158
      l-17.8,27.8Z"/>

    <!-- Logo mark: left arc/wing -->
    <path d="M1066.2,531.2
      l-14.6,30.1
      c-19-45.5-26.3-92.9-26.7-141.3
      c-0.75-83.7,21.5-170.5,72.3-238
      c4.6-1.2,9-2.2,13.8-2.55
      c43.2-3.15,121-3.85,164-0.95
      c4.75,0.3,9.1,1,13.8,2.35
      c-19,13.5-36,26.6-51.6,43.3
      c-42.2,45-62.7,90-89.8,144.2
      l-81.2,162.8Z"/>

    <!-- U letterform -->
    <path d="M1609,257.2
      c3.1,0,5.1,1.9,6,5.3
      l-0.05,235.8
      c-3.9,38.8-27.3,68.5-65.2,77.5
      c-33,7.8-74.2,2.5-97.4-24.3
      c-14-16.2-21.7-36.7-21.7-58.7
      l-0.1-229.7
      c0-3.55,2.5-5.85,5.45-5.85
      h49
      c3.5,0,6.2,1.55,6.2,5.9
      l0.15,232.5
      c0,12.8,9.55,22.1,20.8,25
      c7.15,1.85,14.3,1.9,21.3,0.6
      c13.7-2.55,22.65-13.4,22.65-27.4
      v-231.7
      c0-4,4-5,6.9-5
      l46.1,0.05Z"/>

    <!-- Logo mark: bottom-right shape -->
    <path d="M1687.4,689.4
      c8.3,0.5,14.5,1,23.3,2.6
      c-92.3,91.3-213.8,137.6-343.9,117.4
      c-3.15-3.85-5.5-7.2-7.9-11.6
      l-84.2-154.3
      c-4.3-7.85-8.2-15.2-10-24.4
      c66.6,42.4,117.9,54.9,194.6,58.25
      l38.7,1.7 59,2.95 130.3,7.4Z"/>

    <!-- Logo mark: bottom-left arc -->
    <path d="M1335,804.5
      c-68.8-17.75-130.3-52-182-99.4
      c-37.85-34.8-68.15-76.6-88.5-123.65
      c6.1-14.7,12.35-27.6,19.2-41.55
      c20.4-41.55,41.6-81.9,65.1-121.8
      c3.45-5.85,6.2-11.25,11.6-16.15
      c0.55,26,2.75,48.75,9,72.75
      c10.7,41.1,27.55,80,49.4,116.6
      c36.8,61.65,71.7,123.6,104.6,187.2
      c4.5,8.65,8.1,16.5,11.5,26Z"/>

    <!-- Logo mark: bottom-center arc -->
    <path d="M1543.75,659.7
      c-6.45-0.47-11.35-1.6-18.25-3
      c4-2.7,6.95-4.4,11.25-6.4
      c40.4-18.8,75.9-45.8,104.3-80.2
      c13.3-16.05,24.9-32.05,37.1-49
      l77.45-107.4 61.1-84.6
      c5.8,24.9,8.55,47.7,9.2,71.9
      c2,62.15-10.15,122.85-36.7,179.05
      c-15.2,33.4-35.25,63.45-58.85,91.65
      c-8.95,0.75-16.7,0.45-25.65-0.2
      l-161-11.85Z"/>

    <!-- T letterform -->
    <path d="M1344.9,573
      l-46.8,0.02
      c-4.5,0-6.15-2.65-6.15-7.2
      v-252.9
      l-54.5-0.23
      c-2.35,0-4.45-2.3-4.9-4.55
      l0.1-45.1
      c0-4.7,3.4-5.8,7.5-5.8
      l156.75,0.04
      c4.1,0,7.2,1.2,7.2,5.8
      l0.05,43.9
      c-0.1,3-2.4,5.7-5.5,5.72
      l-49.05,0.08
      v255
      c0,2.75-2.45,5.15-4.7,5.15Z"/>

    <!-- N letterform -->
    <path d="M988.7,542.4
      l-0.4,25.7
      c-0.03,2.15-4.3,4.9-6.35,4.9
      l-43.05,0.05
      c-4.3,0-10.25-1.7-12.1-6.2
      l-13.5-32.6 -10.6-25.1 -7.45-17.65
      -15.15-35.75 -3.45-8.15 -3.35-8
      -9.3-21.35 -10.45-23.9 -6.3-14.6
      0.4,9.55
      c0.15,2.95-0.5,6.35-0.5,9.8
      v163.65
      c0,2.7,0.25,5.4-0.9,7
      c-1,1.4-4.85,3.1-6.75,3.1
      l-38.15,0.02
      c-2.1,0-5.3-1.3-6.65-2.45
      c-1.7-1.5-2.55-5.5-2.55-7.7
      l0.25-20.15 -0.05-205.1
      v-9.8
      l-0.15-43.15
      c-0.02-5.3-1.2-23.8,2.35-26.75
      c1.1-0.95,4.3-1.5,6-1.55
      l44.55-0.2
      c11.7-0.05,13.2,9.25,15.75,15.2
      l28.8,68.2 5.7,13.55 17.85,43.1
      10.8,25.05 8.45,19.65
      -0.65-8.05 0.05-172.55
      c0.6-2.7,7.1-4.15,9.65-4.15
      h39.2
      c2.55,0,6.55,1.95,7.65,3.9
      l0.4,47.4
      c0.1,12.55-0.85,19.1,0,33.15
      c0.1,1.7,0.1,3.1,0,4.9
      c-0.55,11.45,0.25,19.5-0.05,27.9
      c-0.45,12.2,0.15,24.2-0.05,36.5
      l-0.1,5.5 -0.04,123.3 0.1,3.8Z"/>

    <!-- E letterform -->
    <path d="M735.7,428.4
      c0.02,5.7-2.8,7.75-7.75,7.75
      l-48.65,0.08 -20.8,0.07
      0.05,82.4
      35.8-0.72 57.6-0.23
      c3.55,0,6.2,6.05,6.2,9.1
      l-0.15,37.1
      c-0.02,4.65-4.65,9-9.55,9
      l-140.3-0.05
      c-4.8,0-8.5-6.6-8.5-11.2
      l-0.03-297.5
      c0-2.55,2.35-6.8,4.35-6.9
      c3.95-0.2,8.35-0.45,11.8-0.45
      l14.1,0.03 12.35-0.28
      c14.65-0.33,28.75,0.72,43.6,0.2
      c13.55-0.48,27.05,1.15,40.75-0.15
      c3.4-0.3,6.1-0.18,9.7,0.1
      c5.1,0.38,11.4,0.36,16.75,0.44
      c1.75,0.02,5.2,2.95,5.2,4.95
      l0.1,42.7
      c-0.85,2.65-1.9,4.8-3.6,7
      l-96.15,0.02 0.05,71.8
      h72.5
      c4.15,1.15,6.6,5.6,4.5,9.5
      l0.1,35.3Z"/>

    <!-- L letterform (second) -->
    <path d="M571.8,524.2
      l-0.15,43.65
      c0,2.45-5.4,5.1-7.9,5.1
      l-125.75,0.02
      c-3.3,0-8.7-1.75-8.7-6.15
      l-0.02-305.6
      c1.05-1.8,3.8-4.15,5.4-4.2
      l10.05-0.3 13.85-0.02 22.55,0.28
      c3.3,0.04,8.1,1.35,8.1,6.3
      l0.03,255.2
      77.7,0.15
      c2.2,0,4.8,3.7,5.8,5.55Z"/>

    <!-- A letterform (with counter cutout) -->
    <path fill-rule="evenodd" d="M154.65,510.3
      c-1.65-7.1-13.1-3.7-23.35-3.75
      l-17.6-0.15 -12.15-0.1
      c-7.45-0.06-16.1-1.5-23.05,0.38
      l-2.4,10.7 -6.75,29.65
      -4.2,19
      c-1.1,5-7.4,7.1-12.05,7
      c-14.45-0.25-28.8,0.4-42.7-0.55
      c-6.55-0.45-4.85-8.3-3.9-12.1
      l17.6-71.2 2.4-9.55
      14.4-59.5 4.1-16.2
      2.8-11.8 4.3-18.25
      3.7-13.6 5.45-23.7
      8-31.8 2.15-9.1
      7.45-31.85
      c1.6-6.7,5.1-7.3,12-7.2
      l9.65,0.15 15.65-0.07
      30.9,0.62
      c4.7,0.1,7.1,6.25,8,9.95
      l3.3,13.8 7.45,31.05
      3.85,16.1 6.3,26.15
      7.85,32.6 3.95,16.4
      5.85,24.5 9.9,39.8
      c0.82,3.3,1.2,6.85,2.2,10.05
      c1.7,5.45,2.65,10.7,3.95,16.05
      l8.7,36.25 7.4,30.4
      c0.45,1.75,0.7,5.2,1,7.3
      c0.25,1.9-3.6,5.15-5.55,5.15
      l-44.05,0.07
      c-5.25,0-8.9-3.3-10-8.2
      l-3.25-14.9 -9.1-39.65Z
      M142.2,454.4
      l-7.45-34.3 -6.2-27.45
      -2.1-9.2 -3.1-13.2
      -3-13 -4.85-23.55
      -1.9,10 -3.6,16.5
      -4.95,19.95 -4.75,21.8
      -7.05,33.15 -2.1,9.05
      c-0.82,3.5-1.45,6.55-1.5,10.2
      h52.6Z"/>

    <!-- L letterform (first) -->
    <path d="M392.65,518.75
      c3.45,0.08,6.65,2.85,6.65,6.25
      l-0.07,40.9
      c0,4.55-4.15,7.1-8.3,7.1
      h-131.7
      c-4.15,0-8.8-1.8-8.8-7.3
      l-0.02-301.5
      c0-2.5,1.55-5.7,2.65-6.85
      c3.3-0.32,7.1-1.05,10-1.05
      l40-0.22
      c1.75,0,5.1,1.35,6.15,2.5
      c1.25,1.4,1.2,4.9,1.2,7.4
      l-0.03,252.55
      38.55-0.15 7.45-0.2
      16.95,0.1 19.35,0.45Z"/>

  </g>
</svg>