<svg xmlns="http://www.w3.org/2000/svg" viewBox="1020 0 820 819" aria-hidden="true" focusable="false">
  <g fill="#e05252">

    <!-- Aperture lens: top-left blade -->
    <path d="M1589,212
      c-75-51-144-56-231-56
      l-72,0 -100,2.5 -43,1.2 -27.5,0
      c11-13.7,21.5-25.5,33.5-37
      c40.5-38.5,87.5-67,140-86
      c41-15,84-23.2,128-23.75
      c25-0.3,48.5,0.75,73,4.75
      c3.25,0.55,5.6,2.5,7.1,5.6
      l50.9,100 34.5,69.3
      c3,6,5.4,11.5,6.5,19Z"/>

    <!-- Aperture lens: top-right blade -->
    <path d="M1791.7,323.7
      l-52.2,75.7
      c-16.8,21.8-31.8,44-53.9,64.6
      c12.9-88-9.25-146.5-49-221
      l-88.2-165.5
      c-9.2-17.3-16.9-34.2-24.7-52.7
      c30.3,7.3,57.7,18.5,84.9,32.4
      c40.4,20.6,76.6,47.5,107.5,80.7
      c43.6,46.9,72.5,97.2,93.4,158
      l-17.8,27.8Z"/>

    <!-- Aperture lens: left blade -->
    <path d="M1066.2,531.2
      l-14.6,30.1
      c-19-45.5-26.3-92.9-26.7-141.3
      c-0.75-83.7,21.5-170.5,72.3-238
      c4.6-1.2,9-2.2,13.8-2.55
      c43.2-3.15,121-3.85,164-0.95
      c4.75,0.3,9.1,1,13.8,2.35
      c-19,13.5-36,26.6-51.6,43.3
      c-42.2,45-62.7,90-89.8,144.2
      l-81.2,162.8Z"/>

    <!-- Aperture lens: bottom-right blade -->
    <path d="M1687.4,689.4
      c8.3,0.5,14.5,1,23.3,2.6
      c-92.3,91.3-213.8,137.6-343.9,117.4
      c-3.15-3.85-5.5-7.2-7.9-11.6
      l-84.2-154.3
      c-4.3-7.85-8.2-15.2-10-24.4
      c66.6,42.4,117.9,54.9,194.6,58.25
      l38.7,1.7 59,2.95 130.3,7.4Z"/>

    <!-- Aperture lens: bottom-left blade -->
    <path d="M1335,804.5
      c-68.8-17.75-130.3-52-182-99.4
      c-37.85-34.8-68.15-76.6-88.5-123.65
      c6.1-14.7,12.35-27.6,19.2-41.55
      c20.4-41.55,41.6-81.9,65.1-121.8
      c3.45-5.85,6.2-11.25,11.6-16.15
      c0.55,26,2.75,48.75,9,72.75
      c10.7,41.1,27.55,80,49.4,116.6
      c36.8,61.65,71.7,123.6,104.6,187.2
      c4.5,8.65,8.1,16.5,11.5,26Z"/>

    <!-- Aperture lens: bottom-center blade -->
    <path d="M1543.75,659.7
      c-6.45-0.47-11.35-1.6-18.25-3
      c4-2.7,6.95-4.4,11.25-6.4
      c40.4-18.8,75.9-45.8,104.3-80.2
      c13.3-16.05,24.9-32.05,37.1-49
      l77.45-107.4 61.1-84.6
      c5.8,24.9,8.55,47.7,9.2,71.9
      c2,62.15-10.15,122.85-36.7,179.05
      c-15.2,33.4-35.25,63.45-58.85,91.65
      c-8.95,0.75-16.7,0.45-25.65-0.2
      l-161-11.85Z"/>

    <!-- T letterform -->
    <path d="M1344.9,573
      l-46.8,0.02
      c-4.5,0-6.15-2.65-6.15-7.2
      v-252.9
      l-54.5-0.23
      c-2.35,0-4.45-2.3-4.9-4.55
      l0.1-45.1
      c0-4.7,3.4-5.8,7.5-5.8
      l156.75,0.04
      c4.1,0,7.2,1.2,7.2,5.8
      l0.05,43.9
      c-0.1,3-2.4,5.7-5.5,5.72
      l-49.05,0.08
      v255
      c0,2.75-2.45,5.15-4.7,5.15Z"/>

    <!-- U letterform -->
    <path d="M1609,257.2
      c3.1,0,5.1,1.9,6,5.3
      l-0.05,235.8
      c-3.9,38.8-27.3,68.5-65.2,77.5
      c-33,7.8-74.2,2.5-97.4-24.3
      c-14-16.2-21.7-36.7-21.7-58.7
      l-0.1-229.7
      c0-3.55,2.5-5.85,5.45-5.85
      h49
      c3.5,0,6.2,1.55,6.2,5.9
      l0.15,232.5
      c0,12.8,9.55,22.1,20.8,25
      c7.15,1.85,14.3,1.9,21.3,0.6
      c13.7-2.55,22.65-13.4,22.65-27.4
      v-231.7
      c0-4,4-5,6.9-5
      l46.1,0.05Z"/>

  </g>
</svg>