<?xml version="1.0" encoding="UTF-8"?>
<svg xmlns="http://www.w3.org/2000/svg" viewBox="0 0 256 256">
  <defs>
    <linearGradient id="bgp" x1="0" y1="0" x2="1" y2="1">
      <stop offset="0%" stop-color="#0D0F14"/>
      <stop offset="100%" stop-color="#101825"/>
    </linearGradient>
  </defs>
  <rect x="0" y="0" width="256" height="256" rx="44" fill="url(#bgp)"/>
  <rect x="32" y="32" width="14" height="14" rx="3" fill="#1A2433" opacity="0.22"/><rect x="48" y="32" width="14" height="14" rx="3" fill="#1A2433" opacity="0.22"/><rect x="64" y="32" width="14" height="14" rx="3" fill="#1A2433" opacity="0.22"/><rect x="80" y="32" width="14" height="14" rx="3" fill="#1A2433" opacity="0.22"/><rect x="96" y="32" width="14" height="14" rx="3" fill="#1A2433" opacity="0.22"/><rect x="112" y="32" width="14" height="14" rx="3" fill="#1A2433" opacity="0.22"/><rect x="128" y="32" width="14" height="14" rx="3" fill="#1A2433" opacity="0.22"/><rect x="144" y="32" width="14" height="14" rx="3" fill="#1A2433" opacity="0.22"/><rect x="160" y="32" width="14" height="14" rx="3" fill="#1A2433" opacity="0.22"/><rect x="176" y="32" width="14" height="14" rx="3" fill="#1A2433" opacity="0.22"/><rect x="32" y="48" width="14" height="14" rx="3" fill="#1A2433" opacity="0.22"/><rect x="48" y="48" width="14" height="14" rx="3" fill="#1A2433" opacity="0.22"/><rect x="64" y="48" width="14" height="14" rx="3" fill="#1A2433" opacity="0.22"/><rect x="80" y="48" width="14" height="14" rx="3" fill="#1A2433" opacity="0.22"/><rect x="96" y="48" width="14" height="14" rx="3" fill="#1A2433" opacity="0.22"/><rect x="112" y="48" width="14" height="14" rx="3" fill="#1A2433" opacity="0.22"/><rect x="128" y="48" width="14" height="14" rx="3" fill="#1A2433" opacity="0.22"/><rect x="144" y="48" width="14" height="14" rx="3" fill="#1A2433" opacity="0.22"/><rect x="160" y="48" width="14" height="14" rx="3" fill="#1A2433" opacity="0.22"/><rect x="176" y="48" width="14" height="14" rx="3" fill="#1A2433" opacity="0.22"/><rect x="32" y="64" width="14" height="14" rx="3" fill="#1A2433" opacity="0.22"/><rect x="48" y="64" width="14" height="14" rx="3" fill="#1A2433" opacity="0.22"/><rect x="64" y="64" width="14" height="14" rx="3" fill="#1A2433" opacity="0.22"/><rect x="80" y="64" width="14" height="14" rx="3" fill="#1A2433" opacity="0.22"/><rect x="96" y="64" width="14" height="14" rx="3" fill="#1A2433" opacity="0.22"/><rect x="112" y="64" width="14" height="14" rx="3" fill="#1A2433" opacity="0.22"/><rect x="128" y="64" width="14" height="14" rx="3" fill="#1A2433" opacity="0.22"/><rect x="144" y="64" width="14" height="14" rx="3" fill="#1A2433" opacity="0.22"/><rect x="160" y="64" width="14" height="14" rx="3" fill="#1A2433" opacity="0.22"/><rect x="176" y="64" width="14" height="14" rx="3" fill="#1A2433" opacity="0.22"/><rect x="32" y="80" width="14" height="14" rx="3" fill="#1A2433" opacity="0.22"/><rect x="48" y="80" width="14" height="14" rx="3" fill="#1A2433" opacity="0.22"/><rect x="64" y="80" width="14" height="14" rx="3" fill="#1A2433" opacity="0.22"/><rect x="80" y="80" width="14" height="14" rx="3" fill="#1A2433" opacity="0.22"/><rect x="96" y="80" width="14" height="14" rx="3" fill="#1A2433" opacity="0.22"/><rect x="112" y="80" width="14" height="14" rx="3" fill="#1A2433" opacity="0.22"/><rect x="128" y="80" width="14" height="14" rx="3" fill="#1A2433" opacity="0.22"/><rect x="144" y="80" width="14" height="14" rx="3" fill="#1A2433" opacity="0.22"/><rect x="160" y="80" width="14" height="14" rx="3" fill="#1A2433" opacity="0.22"/><rect x="176" y="80" width="14" height="14" rx="3" fill="#1A2433" opacity="0.22"/><rect x="32" y="96" width="14" height="14" rx="3" fill="#1A2433" opacity="0.22"/><rect x="48" y="96" width="14" height="14" rx="3" fill="#1A2433" opacity="0.22"/><rect x="64" y="96" width="14" height="14" rx="3" fill="#1A2433" opacity="0.22"/><rect x="80" y="96" width="14" height="14" rx="3" fill="#1A2433" opacity="0.22"/><rect x="96" y="96" width="14" height="14" rx="3" fill="#1A2433" opacity="0.22"/><rect x="112" y="96" width="14" height="14" rx="3" fill="#1A2433" opacity="0.22"/><rect x="128" y="96" width="14" height="14" rx="3" fill="#1A2433" opacity="0.22"/><rect x="144" y="96" width="14" height="14" rx="3" fill="#1A2433" opacity="0.22"/><rect x="160" y="96" width="14" height="14" rx="3" fill="#1A2433" opacity="0.22"/><rect x="176" y="96" width="14" height="14" rx="3" fill="#1A2433" opacity="0.22"/><rect x="32" y="112" width="14" height="14" rx="3" fill="#1A2433" opacity="0.22"/><rect x="48" y="112" width="14" height="14" rx="3" fill="#1A2433" opacity="0.22"/><rect x="64" y="112" width="14" height="14" rx="3" fill="#1A2433" opacity="0.22"/><rect x="80" y="112" width="14" height="14" rx="3" fill="#1A2433" opacity="0.22"/><rect x="96" y="112" width="14" height="14" rx="3" fill="#1A2433" opacity="0.22"/><rect x="112" y="112" width="14" height="14" rx="3" fill="#1A2433" opacity="0.22"/><rect x="128" y="112" width="14" height="14" rx="3" fill="#1A2433" opacity="0.22"/><rect x="144" y="112" width="14" height="14" rx="3" fill="#1A2433" opacity="0.22"/><rect x="160" y="112" width="14" height="14" rx="3" fill="#1A2433" opacity="0.22"/><rect x="176" y="112" width="14" height="14" rx="3" fill="#1A2433" opacity="0.22"/><rect x="32" y="128" width="14" height="14" rx="3" fill="#1A2433" opacity="0.22"/><rect x="48" y="128" width="14" height="14" rx="3" fill="#1A2433" opacity="0.22"/><rect x="64" y="128" width="14" height="14" rx="3" fill="#1A2433" opacity="0.22"/><rect x="80" y="128" width="14" height="14" rx="3" fill="#1A2433" opacity="0.22"/><rect x="96" y="128" width="14" height="14" rx="3" fill="#1A2433" opacity="0.22"/><rect x="112" y="128" width="14" height="14" rx="3" fill="#1A2433" opacity="0.22"/><rect x="128" y="128" width="14" height="14" rx="3" fill="#1A2433" opacity="0.22"/><rect x="144" y="128" width="14" height="14" rx="3" fill="#1A2433" opacity="0.22"/><rect x="160" y="128" width="14" height="14" rx="3" fill="#1A2433" opacity="0.22"/><rect x="176" y="128" width="14" height="14" rx="3" fill="#1A2433" opacity="0.22"/><rect x="32" y="144" width="14" height="14" rx="3" fill="#1A2433" opacity="0.22"/><rect x="48" y="144" width="14" height="14" rx="3" fill="#1A2433" opacity="0.22"/><rect x="64" y="144" width="14" height="14" rx="3" fill="#1A2433" opacity="0.22"/><rect x="80" y="144" width="14" height="14" rx="3" fill="#1A2433" opacity="0.22"/><rect x="96" y="144" width="14" height="14" rx="3" fill="#1A2433" opacity="0.22"/><rect x="112" y="144" width="14" height="14" rx="3" fill="#1A2433" opacity="0.22"/><rect x="128" y="144" width="14" height="14" rx="3" fill="#1A2433" opacity="0.22"/><rect x="144" y="144" width="14" height="14" rx="3" fill="#1A2433" opacity="0.22"/><rect x="160" y="144" width="14" height="14" rx="3" fill="#1A2433" opacity="0.22"/><rect x="176" y="144" width="14" height="14" rx="3" fill="#1A2433" opacity="0.22"/><rect x="32" y="32" width="14" height="14" rx="3" fill="#8CC1FF" opacity="1.0"/><rect x="48" y="32" width="14" height="14" rx="3" fill="#8CC1FF" opacity="1.0"/><rect x="64" y="32" width="14" height="14" rx="3" fill="#8CC1FF" opacity="1.0"/><rect x="80" y="32" width="14" height="14" rx="3" fill="#8CC1FF" opacity="1.0"/><rect x="96" y="32" width="14" height="14" rx="3" fill="#8CC1FF" opacity="1.0"/><rect x="112" y="32" width="14" height="14" rx="3" fill="#8CC1FF" opacity="1.0"/><rect x="176" y="32" width="14" height="14" rx="3" fill="#8CC1FF" opacity="1.0"/><rect x="64" y="48" width="14" height="14" rx="3" fill="#8CC1FF" opacity="1.0"/><rect x="112" y="48" width="14" height="14" rx="3" fill="#8CC1FF" opacity="1.0"/><rect x="176" y="48" width="14" height="14" rx="3" fill="#8CC1FF" opacity="1.0"/><rect x="64" y="64" width="14" height="14" rx="3" fill="#8CC1FF" opacity="1.0"/><rect x="112" y="64" width="14" height="14" rx="3" fill="#8CC1FF" opacity="1.0"/><rect x="176" y="64" width="14" height="14" rx="3" fill="#8CC1FF" opacity="1.0"/><rect x="64" y="80" width="14" height="14" rx="3" fill="#8CC1FF" opacity="1.0"/><rect x="112" y="80" width="14" height="14" rx="3" fill="#8CC1FF" opacity="1.0"/><rect x="176" y="80" width="14" height="14" rx="3" fill="#8CC1FF" opacity="1.0"/><rect x="64" y="96" width="14" height="14" rx="3" fill="#8CC1FF" opacity="1.0"/><rect x="112" y="96" width="14" height="14" rx="3" fill="#8CC1FF" opacity="1.0"/><rect x="176" y="96" width="14" height="14" rx="3" fill="#8CC1FF" opacity="1.0"/><rect x="64" y="112" width="14" height="14" rx="3" fill="#8CC1FF" opacity="1.0"/><rect x="112" y="112" width="14" height="14" rx="3" fill="#8CC1FF" opacity="1.0"/><rect x="176" y="112" width="14" height="14" rx="3" fill="#8CC1FF" opacity="1.0"/><rect x="64" y="128" width="14" height="14" rx="3" fill="#8CC1FF" opacity="1.0"/><rect x="112" y="128" width="14" height="14" rx="3" fill="#8CC1FF" opacity="1.0"/><rect x="176" y="128" width="14" height="14" rx="3" fill="#8CC1FF" opacity="1.0"/><rect x="128" y="144" width="14" height="14" rx="3" fill="#8CC1FF" opacity="1.0"/><rect x="144" y="144" width="14" height="14" rx="3" fill="#8CC1FF" opacity="1.0"/><rect x="160" y="144" width="14" height="14" rx="3" fill="#8CC1FF" opacity="1.0"/>
  <rect x="64" y="80" width="14" height="14" rx="3" fill="#FFFFFF" opacity="1.0"/><rect x="144" y="112" width="14" height="14" rx="3" fill="#FFFFFF" opacity="1.0"/>
  <!-- Soft vignette -->
  <rect x="0" y="0" width="256" height="256" rx="44" fill="#000000" opacity="0.09"/>
</svg>
