<?xml version="1.0" encoding="UTF-8"?>
<svg xmlns="http://www.w3.org/2000/svg"
     viewBox="0 0 819 819"
     fill="#e6e6e6">
  <path d="M573.08,211.63c-74.78-51.18-143.47-55.87-231.07-55.66l-72.06.18-100.32,2.48-42.71,1.19h-27.6c10.94-13.69,21.35-25.41,33.6-37,40.54-38.32,87.54-67.15,140.07-86.14,41.22-14.9,83.96-23.2,127.92-23.75,24.99-.31,48.6.75,73.05,4.77,3.25.54,5.57,2.53,7.13,5.6l50.85,99.95,34.59,69.35c2.97,5.95,5.4,11.49,6.54,19.03Z"/>
  <path d="M50.15,531.18l-14.62,30.13c-18.96-45.51-26.29-92.92-26.72-141.3-.75-83.74,21.45-170.53,72.33-237.95,4.58-1.23,9-2.19,13.83-2.55,43.19-3.16,121-3.85,163.98-.96,4.73.32,9.06,1.02,13.8,2.36-18.94,13.46-35.99,26.61-51.61,43.25-42.19,44.93-62.71,90.05-89.75,144.23l-81.24,162.8Z"/>
  <g>
    <path d="M671.39,689.43c8.28.47,14.54.96,23.31,2.57-92.33,91.27-213.76,137.61-343.92,117.42-3.16-3.85-5.49-7.17-7.92-11.62l-84.17-154.28c-4.29-7.87-8.21-15.22-9.99-24.4,66.56,42.36,117.85,54.9,194.63,58.25l38.7,1.69,59.06,2.94,130.29,7.43Z"/>
    <path d="M319.05,804.51c-68.77-17.76-130.32-51.98-181.97-99.44-37.85-34.78-68.15-76.58-88.5-123.64,6.1-14.69,12.34-27.61,19.18-41.55,20.39-41.56,41.62-81.91,65.11-121.78,3.45-5.85,6.18-11.24,11.61-16.15.56,25.96,2.77,48.74,9.03,72.76,10.7,41.11,27.55,80,49.4,116.6,36.8,61.64,71.68,123.6,104.62,187.18,4.48,8.65,8.09,16.53,11.52,26.02Z"/>
  </g>
  <g>
    <path d="M775.72,323.7l-52.23,75.71c-16.83,21.79-31.81,43.98-53.85,64.58,12.87-88.13-9.25-146.41-49-221.04l-88.16-165.51c-9.21-17.3-16.87-34.19-24.7-52.65,30.3,7.32,57.74,18.48,84.9,32.36,40.4,20.65,76.58,47.48,107.47,80.72,43.58,46.88,72.5,97.24,93.36,157.99l-17.8,27.84Z"/>
    <path d="M527.75,659.69c-6.45-.47-11.33-1.61-18.25-2.97,3.97-2.72,6.95-4.4,11.25-6.4,40.41-18.81,75.87-45.77,104.34-80.18,13.29-16.06,24.89-32.06,37.11-49.01l77.43-107.38,61.12-84.61c5.77,24.91,8.56,47.69,9.19,71.93,2.03,62.15-10.13,122.84-36.67,179.05-15.22,33.39-35.24,63.44-58.86,91.64-8.95.73-16.68.45-25.67-.21l-161.01-11.85Z"/>
  </g>
  <g>
    <path d="M593.02,257.22c3.12,0,5.08,1.91,5.99,5.32l-.04,235.8c-3.87,38.81-27.3,68.51-65.21,77.48-32.95,7.8-74.2,2.54-97.44-24.3-14.04-16.21-21.69-36.68-21.71-58.68l-.11-229.68c0-3.53,2.55-5.89,5.45-5.89l50.74.05c2.48,0,4.47,2.97,4.47,5.84l.15,232.54c0,12.76,9.55,22.09,20.77,24.96,7.14,1.82,14.32,1.88,21.26.6,13.72-2.54,22.66-13.37,22.66-27.41v-231.69c-.02-4.03,4.01-4.97,6.92-4.97l46.09.04Z"/>
    <path d="M329.34,572.98l-47.26.05c-4.49,0-6.16-2.66-6.16-7.2v-252.91s-54.53-.23-54.53-.23c-2.35,0-4.43-2.31-4.89-4.56l.12-45.08c.01-4.72,3.37-5.81,7.53-5.81l156.74.04c4.1,0,7.22,1.21,7.22,5.83l.04,43.91c-.08,3-2.4,5.71-5.5,5.72l-49.06.08.02,255.04c0,2.18-2.14,5.13-4.25,5.13Z"/>
  </g>
</svg>